<svg width="29" height="22" viewBox="0 0 29 22" fill="none" xmlns="http://www.w3.org/2000/svg">
<g clip-path="url(#clip0_108_50)">
<path d="M23.2772 2.3525C21.5211 1.53087 19.6435 0.933755 17.6804 0.59375C17.4393 1.02962 17.1577 1.61589 16.9635 2.08225C14.8767 1.76843 12.8091 1.76843 10.7607 2.08225C10.5666 1.61589 10.2785 1.02962 10.0352 0.59375C8.07007 0.933755 6.19024 1.53307 4.43417 2.35685C0.892165 7.70928 -0.0680138 12.9288 0.412076 18.0742C2.76133 19.8284 5.03802 20.8943 7.2763 21.5916C7.82895 20.831 8.32183 20.0224 8.74644 19.1703C7.93776 18.863 7.16322 18.4839 6.43137 18.0436C6.62551 17.8998 6.81544 17.7495 6.99892 17.5947C11.4627 19.6824 16.3127 19.6824 20.7231 17.5947C20.9088 17.7495 21.0987 17.8998 21.2907 18.0436C20.5567 18.486 19.78 18.8652 18.9713 19.1726C19.396 20.0224 19.8867 20.8332 20.4415 21.5938C22.6819 20.8964 24.9607 19.8307 27.31 18.0742C27.8733 12.1094 26.3477 6.93779 23.2772 2.3525ZM9.35456 14.9097C8.01459 14.9097 6.9157 13.6589 6.9157 12.1355C6.9157 10.6122 7.99112 9.35903 9.35456 9.35903C10.7181 9.35903 11.8169 10.61 11.7935 12.1355C11.7956 13.6589 10.7181 14.9097 9.35456 14.9097ZM18.3675 14.9097C17.0275 14.9097 15.9286 13.6589 15.9286 12.1355C15.9286 10.6122 17.004 9.35903 18.3675 9.35903C19.7309 9.35903 20.8298 10.61 20.8064 12.1355C20.8064 13.6589 19.7309 14.9097 18.3675 14.9097Z" fill="white"/>
</g>
<defs>
<clipPath id="clip0_108_50">
<rect width="28" height="21" fill="white" transform="translate(0.296875 0.59375)"/>
</clipPath>
</defs>
</svg>
