<svg width="31" height="31" viewBox="0 0 31 31" fill="none" xmlns="http://www.w3.org/2000/svg">
<g clip-path="url(#clip0_108_45)">
<path d="M11.1582 21.7373L9.61316 21.0974C9.89443 21.6899 10.3845 22.1577 10.9894 22.4111C11.6447 22.6834 12.3812 22.6841 13.037 22.4134C13.6929 22.1426 14.2144 21.6225 14.4869 20.9674C14.7619 20.3086 14.7631 19.5786 14.4906 18.9186C14.3582 18.593 14.1624 18.2969 13.9145 18.0475C13.6667 17.7982 13.3718 17.6006 13.0469 17.4661C12.4176 17.2037 11.7114 17.193 11.0744 17.4361L12.6719 18.0986C13.1543 18.3002 13.5369 18.6851 13.7356 19.1686C13.9344 19.6522 13.933 20.1949 13.7319 20.6774C13.6326 20.9161 13.4872 21.1329 13.3041 21.3152C13.121 21.4977 12.9037 21.6422 12.6647 21.7407C12.4257 21.8392 12.1696 21.8896 11.9111 21.889C11.6526 21.8883 11.3967 21.8369 11.1582 21.7373Z" fill="white"/>
<path d="M15.8644 2.59375C9.23938 2.59375 3.81813 7.7475 3.39062 14.2638L3.39562 14.2725V14.2712L10.1119 17.0363C10.7176 16.6351 11.4349 16.4364 12.1606 16.4688L15.2194 12.025L15.2181 11.9638C15.2185 10.7041 15.7185 9.49592 16.6085 8.60448C17.4986 7.71303 18.7059 7.21106 19.9656 7.20875C20.5981 7.20329 21.2255 7.32405 21.8107 7.56399C22.3961 7.80394 22.9276 8.15822 23.3744 8.60612C23.8211 9.05402 24.174 9.58652 24.4124 10.1725C24.6507 10.7584 24.7699 11.386 24.7626 12.0186C24.7555 12.6511 24.6222 13.2759 24.3708 13.8563C24.1191 14.4368 23.7544 14.9611 23.2976 15.3988C22.8409 15.8365 22.3015 16.1786 21.7109 16.4053C21.1203 16.632 20.4904 16.7385 19.8581 16.7188L15.4819 19.8463C15.4976 20.4249 15.3682 20.9982 15.1056 21.514C14.8429 22.0299 14.4553 22.4718 13.9781 22.7992C13.5009 23.1269 12.9492 23.3298 12.3735 23.3895C11.7977 23.4493 11.2162 23.3639 10.6819 23.1413C10.169 22.9271 9.71524 22.5928 9.35886 22.1664C9.00249 21.7399 8.75399 21.234 8.63438 20.6912L3.90313 18.7388C5.46563 23.865 10.2281 27.5938 15.8644 27.5938C22.7681 27.5938 28.3644 21.9975 28.3644 15.0938C28.3644 8.19 22.7669 2.59375 15.8644 2.59375Z" fill="white"/>
<path d="M23.1321 11.9625C23.1314 11.1231 22.798 10.3183 22.205 9.7243C21.612 9.13034 20.8076 8.79569 19.9684 8.7937C19.1434 8.81688 18.3599 9.16089 17.7845 9.75261C17.2093 10.3444 16.8874 11.1371 16.8874 11.9625C16.8874 12.7878 17.2093 13.5805 17.7845 14.1723C18.3599 14.764 19.1434 15.108 19.9684 15.1313C20.8079 15.1299 21.6125 14.7955 22.2058 14.2014C22.7989 13.6073 23.1321 12.802 23.1321 11.9625ZM17.5984 11.9587C17.5984 10.6437 18.6634 9.57745 19.9734 9.57745C21.2859 9.57745 22.3496 10.6437 22.3496 11.9587C22.3499 12.271 22.2886 12.5804 22.1694 12.869C22.0501 13.1576 21.8753 13.42 21.6545 13.641C21.4339 13.862 21.1718 14.0374 20.8834 14.1571C20.5949 14.2769 20.2856 14.3385 19.9734 14.3388C18.6621 14.3388 17.5984 13.2725 17.5984 11.9587Z" fill="white"/>
</g>
<defs>
<clipPath id="clip0_108_45">
<rect width="30" height="30" fill="white" transform="translate(0.890625 0.09375)"/>
</clipPath>
</defs>
</svg>
