<svg width="26" height="25" viewBox="0 0 26 25" fill="none" xmlns="http://www.w3.org/2000/svg">
<g clip-path="url(#clip0_108_34)">
<path d="M13.6758 0.09375C11.3024 0.09375 8.98233 0.797538 7.00894 2.11611C5.03555 3.43469 3.49748 5.30883 2.58923 7.50155C1.68098 9.69426 1.44334 12.107 1.90636 14.4348C2.36939 16.7626 3.51227 18.9007 5.1905 20.5791C6.86873 22.2572 9.00693 23.4002 11.3347 23.8631C13.6625 24.3261 16.0753 24.0886 18.268 23.1803C20.4607 22.2721 22.3348 20.7339 23.6534 18.7605C24.972 16.7871 25.6758 14.4671 25.6758 12.0938C25.6759 10.5178 25.3656 8.95736 24.7626 7.50139C24.1596 6.04543 23.2757 4.7225 22.1614 3.60818C21.047 2.49385 19.7241 1.60994 18.2681 1.00693C16.8122 0.403919 15.2517 0.0936192 13.6758 0.09375ZM17.4912 18.2768C17.4463 18.3888 17.3779 18.4898 17.2908 18.5732C17.2036 18.6567 17.0996 18.7204 16.9857 18.7605C16.8718 18.8004 16.7507 18.8155 16.6306 18.8048C16.5104 18.7941 16.3938 18.7578 16.2888 18.6985L13.0312 16.1672L10.9404 18.0961C10.8919 18.132 10.8351 18.1551 10.7754 18.1632C10.7156 18.1714 10.6548 18.1644 10.5984 18.1429L10.9992 14.5568L11.012 14.5668L11.0202 14.496C11.0202 14.496 16.8822 9.15909 17.121 8.9317C17.3628 8.7049 17.283 8.6557 17.283 8.6557C17.2968 8.37906 16.8492 8.6557 16.8492 8.6557L9.08219 13.6525L5.8476 12.551C5.8476 12.551 5.3508 12.3728 5.304 11.981C5.2548 11.5922 5.86379 11.3809 5.86379 11.3809L18.7242 6.27194C18.7242 6.27194 19.7814 5.80091 19.7814 6.58095L17.4912 18.2768Z" fill="white"/>
</g>
<defs>
<clipPath id="clip0_108_34">
<rect width="25" height="24" fill="white" transform="translate(0.6875 0.09375)"/>
</clipPath>
</defs>
</svg>
