<svg width="512" height="512" viewBox="0 0 512 512" fill="none" xmlns="http://www.w3.org/2000/svg">
<path d="M260.399 449C203.299 447.2 148.999 445.8 94.6995 443.7C82.9995 443.2 71.0995 441.4 59.6995 438.7C38.2995 433.7 23.4995 420.8 15.8995 399.7C9.79948 382.7 7.59948 365.2 5.99948 347.4C2.49948 305.6 2.49948 263.8 4.19948 222C5.19948 198.4 5.79948 174.6 12.0995 151.7C15.8995 138 20.4995 124.6 31.5995 114.7C43.2995 104.2 56.9995 97.8999 72.5995 97.1999C115.399 95.0999 158.099 92.4999 200.899 92.0999C258.499 91.4999 316.199 92.2999 373.799 93.3999C398.699 93.8999 423.799 95.1999 448.499 98.3999C471.099 101.4 487.999 114 496.999 136C503.899 152.9 506.499 170.6 507.999 188.6C511.899 233.7 511.999 278.8 509.799 323.9C508.699 346.8 507.599 369.8 501.099 392.1C493.699 417.7 477.999 434.6 451.799 440.4C441.599 442.6 430.999 443.4 420.599 443.8C366.199 445.7 311.899 447.4 260.399 449ZM205.099 335.3C250.699 311.7 295.799 288.3 341.799 264.4C295.899 240.4 250.799 216.9 205.099 193C205.099 240.7 205.099 287.6 205.099 335.3Z" fill="white"/>
</svg>
